#!OML:ASF H:\Dans Jumps\Project 1\Capture day 1\Session 1\subject.ASF
:FULLY-SPECIFIED
:DEGREES
436
root -0.235089 14.8063 6.56778 -8.23671 1.8449 -3.07224
lowerback 13.1033 -0.171321 -1.53512
upperback 5.01593 -0.371598 1.29311
thorax -2.05968 -0.207692 2.26757
lowerneck -12.1552 0.294435 -1.06502
upperneck 29.0076 0.0126007 2.27819
head 11.4251 0.170031 1.02404
rclavicle 1.01877e-014 1.19271e-015
rhumerus -14.4753 -9.82235 -85.2466
rradius 26.8715
rwrist 37.0803
rhand -21.6393 -27.9061
rfingers 7.12502
rthumb 4.75704 -57.8327
lclavicle 1.01877e-014 1.19271e-015
lhumerus -7.5243 1.91924 88.4733
lradius 16.718
lwrist 13.0148
lhand -27.4084 -10.6053
lfingers 7.12502
lthumb -0.814502 19.3729
rfemur -37.2865 -4.35896 21.943
rtibia 70.5304
rfoot -22.3254 -2.40253
rtoes -1.49205
lfemur -40.71 6.79938 -16.7163
ltibia 67.3956
lfoot -14.6546 7.14744
ltoes -18.5176
437
root -0.230913 14.8008 6.67619 -7.74147 1.95271 -2.93159
lowerback 12.7231 -0.221624 -1.55543
upperback 4.82984 -0.438771 1.21183
thorax -2.04615 -0.23911 2.20092
lowerneck -12.1812 0.262283 -1.07037
upperneck 29.2343 -0.0678493 2.38468
head 11.5201 0.146469 1.05647
rclavicle -1.41883e-014 1.07344e-014
rhumerus -14.4574 -9.75326 -85.3814
rradius 27.2381
rwrist 37.0906
rhand -21.6395 -27.951
rfingers 7.12502
rthumb 4.75683 -57.8776
lclavicle -1.41883e-014 1.07344e-014
lhumerus -7.58679 0.898249 88.6237
lradius 17.3022
lwrist 12.8591
lhand -27.34 -10.3652
lfingers 7.12502
lthumb -0.748498 19.6133
rfemur -37.6687 -4.55575 21.8661
rtibia 71.0922
rfoot -22.8149 -2.75094
rtoes -1.30166
lfemur -41.0705 6.98397 -16.9212
ltibia 67.874
lfoot -15.2809 7.22121
ltoes -18.7112
438
root -0.226873 14.8143 6.77377 -7.25086 1.98617 -2.86641
lowerback 12.4045 -0.263424 -1.51344
upperback 4.68593 -0.486896 1.16985
thorax -2.02257 -0.261442 2.13748
lowerneck -12.1943 0.246998 -1.04959
upperneck 29.251 -0.111526 2.43643
head 11.5303 0.135328 1.06644
rclavicle 2.0773e-014 -1.59028e-015
rhumerus -14.4715 -9.98587 -85.4742
rradius 27.6525
rwrist 36.8072
rhand -21.7957 -28.0522
rfingers 7.12502
rthumb 4.60609 -57.9821
lclavicle 2.0773e-014 -1.59028e-015
lhumerus -7.75547 0.164675 88.7683
lradius 18.1185
lwrist 13.0615
lhand -27.4444 -10.3086
lfingers 7.12502
lthumb -0.849297 19.6695
rfemur -37.9517 -4.68073 21.9031
rtibia 71.3972
rfoot -23.0953 -3.08885
rtoes -1.02939
lfemur -41.3046 7.21501 -17.0249
ltibia 68.0946
lfoot -15.7955 7.19681
ltoes -18.8536
439
root -0.221003 14.8448 6.86252 -6.79436 1.96551 -2.84211
lowerback 12.1645 -0.30089 -1.43248
upperback 4.59108 -0.524992 1.1601
thorax -1.99064 -0.279314 2.08463
lowerneck -12.2003 0.246538 -1.03374
upperneck 29.0858 -0.118415 2.44995
head 11.4674 0.135143 1.06569
rclavicle 6.28657e-015 -1.59028e-015
rhumerus -14.5078 -10.3755 -85.5227
rradius 28.0697
rwrist 36.2612
rhand -22.0243 -28.1764
rfingers 7.12502
rthumb 4.38534 -58.111
lclavicle 6.28657e-015 -1.59028e-015
lhumerus -8.00726 -0.340662 88.9258
lradius 19.1151
lwrist 13.7701
lhand -27.6911 -10.4561
lfingers 7.12502
lthumb -1.08753 19.5209
rfemur -38.1119 -4.74511 21.9882
rtibia 71.4763
rfoot -23.1801 -3.38064
rtoes -0.771644
lfemur -41.3795 7.46081 -17.0714
ltibia 68.0647
lfoot -16.1965 7.1066
ltoes -18.9824
440
root -0.212559 14.8903 6.94382 -6.36405 1.91598 -2.80639
lowerback 11.9986 -0.3375 -1.36059
upperback 4.5334 -0.563571 1.16746
thorax -1.95978 -0.297953 2.05528
lowerneck -12.2156 0.257009 -1.03801
upperneck 28.7978 -0.0945399 2.4363
head 11.3586 0.143105 1.06103
rclavicle 1.93815e-014 -1.98785e-016
rhumerus -14.5589 -10.7828 -85.5263
rradius 28.4288
rwrist 35.5941
rhand -22.2703 -28.286
rfingers 7.12502
rthumb 4.14778 -58.2253
lclavicle 1.93815e-014 -1.98785e-016
lhumerus -8.30986 -0.677713 89.1033
lradius 20.1949
lwrist 15.0037
lhand -28.0423 -10.7713
lfingers 7.12502
lthumb -1.42676 19.2037
rfemur -38.1797 -4.74567 22.0417
rtibia 71.3731
rfoot -23.0794 -3.59522
rtoes -0.599468
lfemur -41.3086 7.68066 -17.1273
ltibia 67.7916
lfoot -16.4842 6.97653
ltoes -19.036
441
root -0.201653 14.95 7.01873 -5.94259 1.86811 -2.73149
lowerback 11.8827 -0.377921 -1.32399
upperback 4.50551 -0.611647 1.18046
thorax -1.92405 -0.321911 2.05324
lowerneck -12.2336 0.275544 -1.0528
upperneck 28.4146 -0.0469471 2.39471
head 11.2139 0.157175 1.04997
rclavicle 6.36111e-015 1.37161e-014
rhumerus -14.6108 -11.1164 -85.489
rradius 28.6796
rwrist 34.9967
rhand -22.4675 -28.3534
rfingers 7.12502
rthumb 3.95733 -58.2964
lclavicle 6.36111e-015 1.37161e-014
lhumerus -8.6039 -0.894515 89.2963
lradius 21.225
lwrist 16.644
lhand -28.3999 -11.2538
lfingers 7.12502
lthumb -1.77217 18.7186
rfemur -38.1899 -4.6941 22.0156
rtibia 71.1216
rfoot -22.8103 -3.71217
rtoes -0.586021
lfemur -41.1144 7.83051 -17.2309
ltibia 67.2796
lfoot -16.6477 6.83372
ltoes -19.0412
442
root -0.188742 15.0239 7.08746 -5.51696 1.85273 -2.59431
lowerback 11.8064 -0.429177 -1.34702
upperback 4.49509 -0.68118 1.18897
thorax -1.88983 -0.357077 2.08328
lowerneck -12.2365 0.305664 -1.04688
upperneck 27.9666 0.024992 2.31008
head 11.0423 0.179289 1.02212
rclavicle 1.33931e-014 6.16232e-015
rhumerus -14.6627 -11.3171 -85.4169
rradius 28.7891
rwrist 34.6236
rhand -22.582 -28.3551
rfingers 7.12502
rthumb 3.8468 -58.3002
lclavicle 1.33931e-014 6.16232e-015
lhumerus -8.85249 -1.01936 89.4952
lradius 22.0978
lwrist 18.4786
lhand -28.6925 -11.864
lfingers 7.12502
lthumb -2.05477 18.1058
rfemur -38.1664 -4.6039 21.8703
rtibia 70.743
rfoot -22.3846 -3.7226
rtoes -0.776228
lfemur -40.8141 7.87507 -17.4162
ltibia 66.5316
lfoot -16.6672 6.70221
ltoes -19.0752
443
root -0.17457 15.1109 7.14963 -5.08254 1.86767 -2.41875
lowerback 11.7761 -0.489473 -1.40182
upperback 4.48851 -0.766605 1.19304
thorax -1.87539 -0.400177 2.12922
lowerneck -12.2297 0.343738 -1.02217
upperneck 27.5085 0.109144 2.20376
head 10.8664 0.206533 0.984893
rclavicle -2.91965e-015 1.35174e-014
rhumerus -14.7353 -11.3838 -85.3172
rradius 28.764
rwrist 34.5672
rhand -22.6139 -28.294
rfingers 7.12502
rthumb 3.81599 -58.2396
lclavicle -2.91965e-015 1.35174e-014
lhumerus -9.04757 -1.10308 89.6879
lradius 22.7502
lwrist 20.2788
lhand -28.8496 -12.4822
lfingers 7.12502
lthumb -2.20644 17.4861
rfemur -38.1237 -4.4638 21.6318
rtibia 70.2443
rfoot -21.8094 -3.6294
rtoes -1.12855
lfemur -40.4297 7.82035 -17.6565
ltibia 65.5633
lfoot -16.5507 6.57625
ltoes -19.093
444
root -0.159878 15.209 7.205 -4.64276 1.90752 -2.228
lowerback 11.797 -0.557581 -1.46795
upperback 4.48178 -0.863963 1.19807
thorax -1.88796 -0.44899 2.18487
lowerneck -12.2354 0.382842 -1.01701
upperneck 27.0938 0.192132 2.11844
head 10.7109 0.234133 0.959294
rclavicle -1.03492e-014 -1.36167e-014
rhumerus -14.8369 -11.316 -85.1937
rradius 28.6256
rwrist 34.8084
rhand -22.5683 -28.1975
rfingers 7.12502
rthumb 3.86001 -58.1423
lclavicle -1.03492e-014 -1.36167e-014
lhumerus -9.18556 -1.17464 89.8696
lradius 23.1581
lwrist 21.8075
lhand -28.8641 -12.9993
lfingers 7.12502
lthumb -2.22051 16.9689
rfemur -38.0639 -4.26786 21.3306
rtibia 69.6265
rfoot -21.1035 -3.44655
rtoes -1.55175
lfemur -39.9735 7.68354 -17.9215
ltibia 64.3987
lfoot -16.2983 6.45162
ltoes -19.1623
445
root -0.144937 15.3158 7.25375 -4.20187 1.94996 -2.04437
lowerback 11.8639 -0.627382 -1.52027
upperback 4.47601 -0.962325 1.20781
thorax -1.92435 -0.497928 2.23865
lowerneck -12.2565 0.418952 -1.04427
upperneck 26.7451 0.26763 2.06757
head 10.5841 0.259484 0.951619
rclavicle 1.24986e-014 4.37326e-015
rhumerus -14.9755 -11.1677 -85.0501
rradius 28.4064
rwrist 35.2875
rhand -22.4543 -28.075
rfingers 7.12502
rthumb 3.97008 -58.0178
lclavicle 1.24986e-014 4.37326e-015
lhumerus -9.27473 -1.27795 90.0381
lradius 23.3369
lwrist 22.9035
lhand -28.7832 -13.3398
lfingers 7.12502
lthumb -2.14236 16.6292
rfemur -38.0331 -4.00385 21.0022
rtibia 69.0627
rfoot -20.4141 -3.21493
rtoes -1.91518
lfemur -39.5218 7.49998 -18.1792
ltibia 63.2757
lfoot -16.0821 6.36823
ltoes -19.1537
446
root -0.130032 15.4285 7.29638 -3.75947 1.96695 -1.88363
lowerback 11.9673 -0.689805 -1.54249
upperback 4.47076 -1.04775 1.22485
thorax -1.98087 -0.539981 2.28222
lowerneck -12.2978 0.450186 -1.09785
upperneck 26.4721 0.334494 2.04152
head 10.4899 0.281511 0.957181
rclavicle -6.08778e-015 -2.48481e-017
rhumerus -15.1516 -11.0011 -84.8893
rradius 28.1383
rwrist 35.8865
rhand -22.2853 -27.9633
rfingers 7.12502
rthumb 4.13332 -57.903
lclavicle -6.08778e-015 -2.48481e-017
lhumerus -9.33271 -1.44107 90.1928
lradius 23.3266
lwrist 23.4627
lhand -28.6483 -13.4531
lfingers 7.12502
lthumb -2.01204 16.5172
rfemur -37.992 -3.66158 20.6791
rtibia 68.3898
rfoot -19.6488 -2.92878
rtoes -2.11938
lfemur -39.0338 7.31194 -18.4038
ltibia 62.0396
lfoot -15.818 6.24614
ltoes -19.0207
447
root -0.115246 15.448 7.34821 -3.30376 1.93771 -1.74334
lowerback 12.0843 -0.738584 -1.53449
upperback 4.46345 -1.11169 1.24727
thorax -2.04849 -0.570999 2.31204
lowerneck -12.361 0.476317 -1.17398
upperneck 26.2752 0.394991 2.02877
head 10.4285 0.30021 0.971465
rclavicle 5.59392e-015 -9.62863e-016
rhumerus -15.3639 -10.8704 -84.7129
rradius 27.845
rwrist 36.4831
rhand -22.076 -27.8735
rfingers 7.12502
rthumb 4.33538 -57.8091
lclavicle 5.59392e-015 -9.62863e-016
lhumerus -9.37858 -1.6688 90.333
lradius 23.175
lwrist 23.4457
lhand -28.494 -13.3497
lfingers 7.12502
lthumb -1.86301 16.6219
rfemur -38.3782 -3.25418 20.3615
rtibia 68.057
rfoot -18.8584 -2.59519
rtoes -2.0346
lfemur -38.9524 7.15846 -18.5912
ltibia 61.1263
lfoot -15.5219 6.06705
ltoes -18.7525
448
root -0.09993 15.5655 7.38124 -2.82022 1.8508 -1.6163
lowerback 12.1878 -0.772118 -1.50173
upperback 4.45259 -1.15245 1.27127
thorax -2.11406 -0.590326 2.32637
lowerneck -12.44 0.500898 -1.2586
upperneck 26.1382 0.454875 2.0156
head 10.3922 0.317894 0.987681
rclavicle -4.01607e-015 -1.45858e-014
rhumerus -15.5995 -10.8125 -84.5266
rradius 27.537
rwrist 36.9766
rhand -21.8813 -27.8122
rfingers 7.12502
rthumb 4.52342 -57.7439
lclavicle -4.01607e-015 -1.45858e-014
lhumerus -9.43408 -1.92657 90.4569
lradius 22.9389
lwrist 22.8741
lhand -28.3428 -13.023
lfingers 7.12502
lthumb -1.717 16.9499
rfemur -38.3526 -2.78598 20.0708
rtibia 67.177
rfoot -18.0343 -2.26444
rtoes -1.64539
lfemur -38.4636 7.05178 -18.7617
ltibia 59.7623
lfoot -15.2415 5.86359
ltoes -18.3553
